<svg xmlns="http://www.w3.org/2000/svg" width="1200" height="700" viewBox="0 0 1200 700">
<rect width="1200" height="700" fill="#10151c"/><text x="55" y="70" fill="white" font-size="34" font-family="Arial" font-weight="700">RoadGuard AI — Video Detection</text>
<rect x="55" y="105" width="1090" height="500" rx="18" fill="#202833"/>
<rect x="85" y="140" width="720" height="410" rx="12" fill="#303a45"/>
<path d="M105 470 L300 300 L500 350 L700 180 L790 250 L790 550 L105 550 Z" fill="#59636d"/>
<rect x="150" y="220" width="160" height="90" fill="none" stroke="#38d9a9" stroke-width="4"/><text x="158" y="208" fill="#38d9a9" font-size="18" font-family="Arial">Frame 128</text><rect x="340" y="310" width="160" height="90" fill="none" stroke="#38d9a9" stroke-width="4"/><text x="348" y="298" fill="#38d9a9" font-size="18" font-family="Arial">Pothole 0.89</text><rect x="530" y="220" width="160" height="90" fill="none" stroke="#38d9a9" stroke-width="4"/><text x="538" y="208" fill="#38d9a9" font-size="18" font-family="Arial">Crack 0.82</text>
<rect x="845" y="140" width="270" height="410" rx="12" fill="#171d24"/>
<text x="875" y="190" fill="white" font-size="22" font-family="Arial" font-weight="700">DEMO OUTPUT</text>
<text x="875" y="240" fill="#b9c2cc" font-size="18" font-family="Arial">Detections</text>
<text x="875" y="275" fill="white" font-size="30" font-family="Arial" font-weight="700">3</text>
<text x="875" y="330" fill="#b9c2cc" font-size="18" font-family="Arial">Model status</text>
<text x="875" y="365" fill="#ffd166" font-size="20" font-family="Arial">DEMO / PENDING</text>
<text x="875" y="430" fill="#8e9aa7" font-size="15" font-family="Arial">Illustrative UI output.</text>
<text x="875" y="455" fill="#8e9aa7" font-size="15" font-family="Arial">Not a real prediction.</text>
</svg>